<?xml version="1.0" standalone="no"?>
<!DOCTYPE svg PUBLIC "-//W3C//DTD SVG 20010904//EN"
 "http://www.w3.org/TR/2001/REC-SVG-20010904/DTD/svg10.dtd">
<svg version="1.0" xmlns="http://www.w3.org/2000/svg"
 width="1024.000000pt" height="1024.000000pt" viewBox="0 0 1024.000000 1024.000000"
 preserveAspectRatio="xMidYMid meet">
<metadata>
Created by potrace 1.11, written by Peter Selinger 2001-2013
</metadata>
<g transform="translate(0.000000,1024.000000) scale(0.100000,-0.100000)"
fill="#000000" stroke="none">
<path d="M4772 10229 c-1570 -106 -3014 -937 -3891 -2239 -150 -223 -240 -377
-357 -614 -439 -888 -607 -1889 -484 -2892 178 -1457 991 -2781 2210 -3603
223 -150 377 -240 614 -357 888 -439 1889 -607 2892 -484 1457 178 2781 991
3603 2210 150 223 240 377 357 614 439 888 607 1889 484 2892 -178 1457 -991
2781 -2210 3603 -416 280 -842 488 -1310 639 -596 192 -1274 274 -1908 231z
m-1848 -2239 c1226 -357 2171 -1090 2666 -2070 175 -348 281 -684 341 -1090
27 -176 37 -599 20 -802 -35 -411 -152 -871 -323 -1273 -59 -137 -215 -454
-243 -491 -12 -17 -13 -15 -5 21 74 322 -242 1336 -756 2428 -326 692 -699
1295 -915 1479 -53 45 -136 95 -144 86 -12 -12 -35 -129 -35 -178 2 -445 366
-1499 870 -2515 226 -456 430 -806 609 -1045 74 -100 215 -246 270 -282 25
-15 41 -28 37 -28 -16 0 -215 60 -332 101 -526 181 -1006 441 -1416 767 -155
123 -479 443 -592 585 -428 538 -676 1122 -762 1802 -25 196 -25 634 0 830 73
572 243 1092 529 1613 28 50 57 92 65 92 8 0 60 -13 116 -30z m4566 -52 c43
-69 190 -369 243 -495 155 -368 255 -752 298 -1143 19 -170 16 -535 -5 -710
-65 -540 -244 -1008 -550 -1435 -242 -338 -587 -652 -971 -882 -113 -68 -405
-217 -412 -210 -2 3 14 65 36 138 83 276 138 556 161 824 12 132 15 147 63
260 358 864 598 1760 548 2050 -7 39 -16 77 -21 84 -26 43 -174 -94 -298 -276
-105 -156 -192 -311 -320 -571 l-106 -214 -37 108 c-130 385 -338 761 -602
1089 l-65 80 31 45 c60 86 226 276 338 386 313 305 660 533 1095 719 116 50
507 184 537 185 9 0 26 -15 37 -32z"/>
</g>
</svg>
